HIERARCHY
ROOT Hips
{
	OFFSET 0.00000 0.00000 0.00000
	CHANNELS 6 Xposition Yposition Zposition Zrotation Yrotation Xrotation 
	JOINT RightUpLegDummy
	{
		OFFSET 0 0 0
		CHANNELS 3 Zrotation Yrotation Xrotation
		JOINT RightUpLeg
		{
			OFFSET -3.52197 -3.41223 0.04002
			CHANNELS 3 Zrotation Yrotation Xrotation
			JOINT RightLeg
			{
				OFFSET 0.00006 -17.42390 1.60435
				CHANNELS 3 Zrotation Yrotation Xrotation
				JOINT RightFoot
				{
					OFFSET 0.06153 -16.50078 -1.63901
					CHANNELS 3 Zrotation Yrotation Xrotation
					JOINT RightToes
					{
						OFFSET 0.00298 -1.73825 3.34613
						CHANNELS 3 Zrotation Yrotation Xrotation
						End Site
						{
							OFFSET 0.00480 -0.05416 3.85043
						}
					}
				}
			}
		}
	}
	JOINT SpineDummy
	{
		OFFSET 0 0 0
		CHANNELS 3 Zrotation Yrotation Xrotation
		JOINT Spine
		{
			OFFSET 0.00000 4.68130 0.00000
			CHANNELS 3 Zrotation Yrotation Xrotation
			JOINT Spine1
			{
				OFFSET -0.00000 10.10138 0.05002
				CHANNELS 3 Zrotation Yrotation Xrotation
				JOINT HEadDummy
				{
					OFFSET 0 0 0
					CHANNELS 3 Zrotation Yrotation Xrotation
					JOINT Head
					{
						OFFSET -0.00000 3.43865 0.00438
						CHANNELS 3 Zrotation Yrotation Xrotation
						End Site
						{
							OFFSET -0.11417 5.02924 0.98962
						}
					}
				}
				JOINT LeftShoulder1Dummy
				{
					OFFSET 0 0 0
					CHANNELS 3 Zrotation Yrotation Xrotation
					JOINT LeftShoulder1
					{
						OFFSET 3.53937 -0.14262 -0.08662
						CHANNELS 3 Zrotation Yrotation Xrotation
						JOINT LeftArm
						{
							OFFSET 4.04833 -0.00133 0.12681
							CHANNELS 3 Zrotation Yrotation Xrotation
							JOINT LeftForeArm
							{
								OFFSET 10.33880 -0.01036 -0.55515
								CHANNELS 3 Zrotation Yrotation Xrotation
								JOINT LeftHand
								{
									OFFSET 8.69677 0.07543 0.40060
									CHANNELS 3 Zrotation Yrotation Xrotation
									End Site
									{
										OFFSET 5.28377 -0.21905 0.59205
									}
								}
							}
						}
					}
				}
				JOINT RightShoulderDummy
				{
					OFFSET 0 0 0
					CHANNELS 3 Zrotation Yrotation Xrotation
					JOINT RightShoulder
					{
						OFFSET -3.53937 -0.14262 -0.08660
						CHANNELS 3 Zrotation Yrotation Xrotation
						JOINT RightArm
						{
							OFFSET -4.04833 -0.00133 0.12683
							CHANNELS 3 Zrotation Yrotation Xrotation
							JOINT RightForeArm
							{
								OFFSET -10.37987 -0.01039 -0.55511
								CHANNELS 3 Zrotation Yrotation Xrotation
								JOINT RightHand
								{
									OFFSET -8.67398 0.07538 0.40058
									CHANNELS 3 Zrotation Yrotation Xrotation
									End Site
									{
										OFFSET -5.24810 -0.21916 0.59204
									}
								}
							}
						}
					}
				}
			}
		}
	}
	JOINT LeftUpLegDummy
	{
		OFFSET 0 0 0
		CHANNELS 3 Zrotation Yrotation Xrotation
		JOINT LeftUpLeg
		{
			OFFSET 3.52197 -3.41223 0.04002
			CHANNELS 3 Zrotation Yrotation Xrotation
			JOINT LeftLeg
			{
				OFFSET -0.00012 -17.42399 1.60337
				CHANNELS 3 Zrotation Yrotation Xrotation
				JOINT LeftFoot
				{
					OFFSET -0.09972 -16.50070 -1.63802
					CHANNELS 3 Zrotation Yrotation Xrotation
					JOINT LeftToes
					{
						OFFSET -0.01575 -1.73823 3.34611
						CHANNELS 3 Zrotation Yrotation Xrotation
						End Site
						{
							OFFSET 0.03150 -0.01868 3.85031
						}
					}
				}
			}
		}
	}
}
MOTION
Frames: 11
Frame Time: 0.033333
-8.7314 38.7835 43.3878 -179.4660 38.4729 175.1160 0.0000 0.0000 0.0000 -1.9669 -6.8121 -5.1344 -4.9351 -4.1125 43.2029 9.3113 0.0739 -12.8171 0.0000 -0.0000 -0.0000 0.0000 0.0000 0.0000 3.1045 2.9192 6.4244 1.2825 2.7707 -0.8432 -0.0000 0.0000 -0.0000 -1.5262 10.8820 -5.7991 -0.0000 0.0000 -0.0000 -34.4367 -2.5009 2.4303 -46.4042 -16.4378 -12.5733 -12.7631 5.2779 41.3480 15.3405 -4.1248 -1.2273 -0.0000 0.0000 -0.0000 34.2277 5.0981 3.4614 38.3014 8.7698 -14.1344 11.3290 3.3789 22.1678 -12.9878 1.9534 -0.8063 0.0000 0.0000 0.0000 -5.2022 1.0789 -8.3883 3.7166 14.7329 20.1593 3.6459 0.0515 -10.9025 0.0000 0.0000 -0.0000
-8.2874 38.8612 43.0135 -178.6230 36.9285 175.3510 0.0000 0.0000 0.0000 -1.5415 -4.8366 -7.0303 -7.6931 -6.9583 41.5489 7.7938 0.0587 -12.9049 0.0000 -0.0000 -0.0000 0.0000 0.0000 0.0000 3.1816 2.2929 6.9083 1.9581 2.0314 -1.2125 -0.0000 0.0000 -0.0000 -1.6688 10.6978 -5.6313 -0.0000 0.0000 -0.0000 -34.2655 -2.5113 2.4241 -47.0567 -18.1054 -12.0161 -12.7448 5.2797 41.2843 15.4477 -4.4023 -1.2713 -0.0000 0.0000 -0.0000 34.1330 5.0917 3.4506 38.0500 8.4639 -14.4318 11.2978 3.3776 21.3894 -12.6937 2.0538 -0.7978 0.0000 0.0000 0.0000 -4.4768 1.1954 -7.0989 3.2450 13.2487 19.9497 4.0745 0.0674 -11.3237 0.0000 0.0000 -0.0000
-7.8394 38.9530 42.6386 -177.8810 35.1378 175.4920 0.0000 0.0000 0.0000 -1.3353 -3.5005 -8.4041 -8.2291 -8.4241 38.0922 7.1817 0.0379 -12.6991 0.0000 -0.0000 -0.0000 0.0000 0.0000 0.0000 3.0586 1.6011 7.2821 2.7759 1.1931 -1.3083 -0.0000 0.0000 -0.0000 -1.7538 10.5779 -5.9344 -0.0000 0.0000 -0.0000 -34.2049 -2.6019 2.4568 -47.5281 -19.4909 -11.1329 -12.9541 5.2873 40.8507 15.6161 -4.4572 -1.2927 -0.0000 0.0000 -0.0000 34.1468 5.1005 3.4553 37.7098 8.3739 -14.5507 11.3127 2.8693 21.6726 -12.5465 2.0452 -0.7874 0.0000 0.0000 0.0000 -3.7382 1.4169 -5.6921 2.5749 11.5005 19.4097 4.5228 0.0799 -11.5989 0.0000 0.0000 -0.0000
-7.3798 39.0409 42.2625 -177.2960 33.4744 175.5860 0.0000 0.0000 0.0000 -1.2911 -2.2420 -9.4143 -7.0541 -8.5334 33.2386 7.5313 -0.0266 -11.6156 0.0000 -0.0000 -0.0000 0.0000 0.0000 0.0000 2.8228 1.0387 7.5382 3.5236 0.4870 -1.2415 -0.0000 0.0000 -0.0000 -1.6946 10.5792 -6.5311 -0.0000 0.0000 -0.0000 -34.1826 -2.7593 2.5186 -47.8060 -20.5147 -9.9389 -13.3269 5.2873 40.6470 15.8394 -4.3629 -1.2998 -0.0000 0.0000 -0.0000 34.2458 5.1172 3.4706 37.4506 8.2703 -14.8199 11.2620 2.0094 22.5494 -12.5652 1.9623 -0.7803 0.0000 0.0000 0.0000 -2.9886 1.7217 -4.3170 1.8503 9.7189 18.8511 4.8265 0.0943 -11.8848 0.0000 0.0000 -0.0000
-6.8937 39.1034 41.8761 -176.9470 32.3633 175.6530 0.0000 0.0000 0.0000 -1.3349 -0.5834 -10.3125 -5.7925 -8.5206 27.8182 7.6712 -0.1738 -9.2406 0.0000 -0.0000 -0.0000 0.0000 0.0000 0.0000 2.4640 0.8078 7.6955 4.1322 0.1365 -1.1819 -0.0000 0.0000 -0.0000 -1.4893 10.5534 -7.1061 -0.0000 0.0000 -0.0000 -34.1707 -2.8966 2.5730 -47.8840 -21.1390 -8.8914 -13.6467 5.2738 40.9287 15.8675 -4.4877 -1.3183 -0.0000 0.0000 -0.0000 34.3982 5.1379 3.4923 37.3531 7.9402 -15.3885 11.1112 0.9373 23.3717 -12.6142 1.9368 -0.7821 0.0000 0.0000 0.0000 -2.2886 2.0359 -3.0695 1.2685 8.3216 18.5077 4.7888 0.1180 -12.3853 0.0000 0.0000 -0.0000
-6.3895 39.1671 41.4668 -176.8030 31.7103 175.7780 0.0000 0.0000 0.0000 -1.4294 0.9573 -11.1713 -4.8887 -8.9613 22.1341 6.5969 -0.3187 -6.1655 0.0000 -0.0000 -0.0000 0.0000 0.0000 0.0000 2.0468 0.8265 7.6748 4.6301 0.0555 -1.1814 -0.0000 0.0000 -0.0000 -1.2520 10.2727 -7.4997 -0.0000 0.0000 -0.0000 -34.2210 -2.9302 2.5897 -47.7731 -21.3517 -8.2999 -13.8365 5.2183 41.2919 15.7294 -4.7955 -1.3461 -0.0000 0.0000 -0.0000 34.5570 5.1581 3.5144 37.4008 7.3870 -16.2250 10.8697 -0.2973 23.9955 -12.5870 1.9664 -0.7820 0.0000 0.0000 0.0000 -1.7140 2.3086 -1.8183 0.8241 7.3837 17.9196 4.6938 0.1389 -12.8449 0.0000 0.0000 -0.0000
-5.8890 39.2503 41.0324 -176.7680 31.1441 176.0120 0.0000 0.0000 0.0000 -1.5102 1.4599 -11.8541 -3.5558 -8.4532 16.0317 4.9791 -0.3773 -2.9172 0.0000 -0.0000 -0.0000 0.0000 0.0000 0.0000 1.7225 0.8805 7.4175 4.9975 0.0295 -1.1734 -0.0000 0.0000 -0.0000 -1.1203 9.7882 -7.7248 -0.0000 0.0000 -0.0000 -34.3349 -2.8704 2.5730 -47.5611 -21.2250 -8.2112 -13.9129 5.1520 41.4167 15.7238 -4.8886 -1.3575 -0.0000 0.0000 -0.0000 34.6267 5.1671 3.5242 37.6071 6.7327 -17.1651 10.5759 -1.6135 24.6032 -12.4488 1.9546 -0.7721 0.0000 0.0000 0.0000 -1.2778 2.5213 -0.4978 0.4330 6.6411 16.8192 4.7999 0.1492 -13.0318 0.0000 0.0000 -0.0000
-5.3907 39.3309 40.5721 -176.8040 30.5385 176.2970 0.0000 0.0000 0.0000 -1.4063 0.6249 -12.2058 -1.9082 -5.9433 9.6615 4.3349 -0.4600 0.7487 0.0000 -0.0000 -0.0000 0.0000 0.0000 0.0000 1.5843 0.8962 6.9352 5.1373 0.0012 -1.0355 -0.0000 0.0000 -0.0000 -1.1278 9.3180 -7.8597 -0.0000 0.0000 -0.0000 -34.4234 -2.7995 2.5501 -47.3273 -20.9103 -8.7333 -13.8055 5.2618 41.5847 15.8957 -4.6587 -1.3431 -0.0000 0.0000 -0.0000 34.5867 5.1626 3.5188 37.9735 6.0504 -17.9678 10.3147 -2.8231 25.1547 -12.2854 1.8728 -0.7536 0.0000 0.0000 0.0000 -0.9287 2.6770 0.8224 0.0710 5.9076 15.5527 4.9426 0.1572 -13.1512 0.0000 0.0000 -0.0000
-4.8750 39.3880 40.0837 -176.9060 29.9924 176.5760 0.0000 0.0000 0.0000 -1.0667 -0.8454 -12.3026 -0.8227 -2.7517 3.6823 5.2240 -0.7095 4.4099 0.0000 -0.0000 -0.0000 0.0000 0.0000 0.0000 1.5956 0.9338 6.2812 5.0348 0.0344 -0.7283 -0.0000 0.0000 -0.0000 -1.1957 8.9660 -7.9982 -0.0000 0.0000 -0.0000 -34.4147 -2.7651 2.5357 -47.0595 -20.5736 -9.9255 -13.4053 5.2458 42.2911 15.9712 -4.3281 -1.3065 -0.0000 0.0000 -0.0000 34.5737 5.1615 3.5173 38.3692 5.3152 -18.5317 10.1389 -3.7697 25.5161 -12.1906 1.7556 -0.7362 0.0000 0.0000 0.0000 -0.5993 2.8379 2.1074 -0.2545 5.1858 14.4341 4.9679 0.1711 -13.4246 0.0000 0.0000 -0.0000
-4.3258 39.4057 39.5699 -177.0440 29.5446 176.8710 0.0000 0.0000 0.0000 -0.9999 -1.1790 -12.5487 -0.2163 -1.4167 -0.8976 7.1170 -1.0815 6.3275 0.0000 -0.0000 -0.0000 0.0000 0.0000 0.0000 1.6252 1.0379 5.5091 4.8685 0.1429 -0.3306 -0.0000 0.0000 -0.0000 -1.2577 8.6534 -8.1676 -0.0000 0.0000 -0.0000 -34.3435 -2.7408 2.5214 -46.6927 -20.3328 -11.6619 -12.7119 5.2187 43.7211 15.8551 -3.9907 -1.2528 -0.0000 0.0000 -0.0000 34.7168 5.1791 3.5370 38.6283 4.4937 -18.9962 9.9954 -4.4594 25.8273 -12.1261 1.6296 -0.7199 0.0000 0.0000 0.0000 -0.2350 3.0498 3.2567 -0.5408 4.5286 13.6860 4.9258 0.1953 -13.9348 0.0000 0.0000 -0.0000
-3.7434 39.3768 39.0421 -177.2040 29.1553 177.1640 0.0000 0.0000 0.0000 -1.0089 -1.0700 -13.1770 0.1195 -0.9598 -3.3644 9.2330 -1.3623 5.7139 0.0000 -0.0000 -0.0000 0.0000 0.0000 0.0000 1.5716 1.1822 4.7744 4.7980 0.2802 -0.0221 -0.0000 0.0000 -0.0000 -1.3262 8.3912 -8.3370 -0.0000 0.0000 -0.0000 -34.2921 -2.6961 2.5001 -46.1868 -20.1678 -13.7204 -11.7636 5.1724 45.9315 15.7170 -3.5987 -1.1910 -0.0000 0.0000 -0.0000 34.9577 5.2094 3.5707 38.7564 3.6625 -19.4816 9.8262 -4.9548 26.2056 -12.0397 1.5141 -0.7035 0.0000 0.0000 0.0000 0.1587 3.2881 4.2087 -0.7694 3.9241 13.4311 4.7717 0.2280 -14.6986 0.0000 0.0000 -0.0000
